<?xml version="1.0" encoding="UTF-8"?>
<svg id="Wordmark" xmlns="http://www.w3.org/2000/svg" version="1.1" viewBox="0 0 144 51.54">
  <!-- Generator: Adobe Illustrator 29.6.1, SVG Export Plug-In . SVG Version: 2.1.1 Build 9)  -->
  <defs>
    <style>
      .st0 {
        fill: #5a697c;
      }
    </style>
  </defs>
  <path class="st0" d="M29.67,34.26h-1.76v-17.11h1.76v6.34c1.19-1.26,2.88-2.05,4.74-2.05,3.62,0,6.53,2.93,6.53,6.53v6.29h-1.76v-6.29c0-2.62-2.12-4.77-4.77-4.77s-4.74,2.14-4.74,4.77v6.29Z"/>
  <path class="st0" d="M55.22,27.85c0,3.6-2.91,6.53-6.51,6.53s-6.53-2.93-6.53-6.53,2.93-6.51,6.53-6.51,6.51,2.91,6.51,6.51ZM53.46,27.85c0-2.62-2.12-4.74-4.74-4.74s-4.77,2.12-4.77,4.74,2.14,4.77,4.77,4.77,4.74-2.14,4.74-4.77Z"/>
  <path class="st0" d="M71.69,34.26v-8.29c0-1.62-1.31-2.91-2.93-2.91s-2.93,1.31-2.93,2.93v8.27h-1.76v-8.29c0-1.62-1.31-2.91-2.93-2.91s-2.91,1.31-2.91,2.93v8.27h-1.76v-8.29c0-2.6,2.1-4.67,4.67-4.67,1.57,0,2.96.76,3.81,1.95.86-1.19,2.24-1.95,3.81-1.95,2.6,0,4.7,2.1,4.7,4.69v8.27h-1.76Z"/>
  <path class="st0" d="M80.29,32.52c.31.05.62.1.93.1,2.31,0,4.24-1.67,4.67-3.88h1.79c-.43,3.19-3.17,5.65-6.46,5.65-3.6,0-6.53-2.93-6.53-6.53s2.93-6.51,6.53-6.51c2.76,0,5.15,1.72,6.08,4.17l-7.01,7.01ZM78.55,31.79l6.6-6.6c-.86-1.24-2.31-2.07-3.93-2.07-2.62,0-4.77,2.12-4.77,4.74,0,1.64.83,3.07,2.1,3.93Z"/>
  <path class="st0" d="M103.29,34.01h-2.67c-.15,0-.31-.04-.48-.13-.17-.09-.3-.19-.39-.32l-3.53-4.89c-.25-.34-.53-.41-.73-.41s-.48.07-.73.41l-3.53,4.89c-.09.13-.22.23-.38.32-.16.08-.31.12-.46.12h-2.67s-.03.03-.03.03c0,0,0-.03.04-.09l5.55-7.41c.17-.21.26-.49.26-.79s-.09-.57-.26-.81l-5.7-7.58,2.66-.03c.14,0,.3.04.46.13.16.08.29.19.38.32l3.67,5.08c.25.34.53.41.73.41s.48-.07.73-.41l3.67-5.08c.09-.12.22-.23.39-.31.17-.08.33-.13.48-.13h2.65l-5.68,7.61c-.18.24-.26.52-.26.82s.09.58.27.8l5.55,7.4c.05.07.06.11.06.11l-.05-.06Z"/>
  <path class="st0" d="M116.09,34.26h-1.76v-1.93c-1.19,1.26-2.88,2.05-4.74,2.05-3.6,0-6.53-2.93-6.53-6.53s2.93-6.51,6.53-6.51,6.51,2.91,6.51,6.51v6.41ZM114.33,27.85c0-2.62-2.12-4.74-4.74-4.74s-4.77,2.12-4.77,4.74,2.15,4.77,4.77,4.77,4.74-2.14,4.74-4.77Z"/>
</svg>