<?xml version="1.0" encoding="UTF-8"?>
<svg id="Mark__x2F__Symbol" xmlns="http://www.w3.org/2000/svg" version="1.1" viewBox="0 0 144 144">
  <!-- Generator: Adobe Illustrator 29.6.1, SVG Export Plug-In . SVG Version: 2.1.1 Build 9)  -->
  <defs>
    <style>
      .st0 {
        fill: #5a697c;
      }
    </style>
  </defs>
  <g id="HEX_x23_:_5a697c._____x3C_Group_x3E_">
    <g>
      <path class="st0" d="M62.96,101.4v-8.44h-20.92v-28.87l5.53-4.45v-15.64h14.26v4.16l10.17-8.19,29.96,24.13v37.32h-38.99ZM96.78,96.23v-29.66l-24.78-19.96-15.34,12.36v-9.8h-3.91v12.94l-5.53,4.45v21.22h15.74v-13.53c0-4.98,4.05-9.04,9.04-9.04s9.04,4.05,9.04,9.04v18.7h-12.9v3.27h28.64ZM75.86,87.78v-13.53c0-2.13-1.73-3.86-3.86-3.86s-3.86,1.73-3.86,3.86v13.53h7.72Z"/>
      <g>
        <path class="st0" d="M27.91,92.46v16.7c0,.84.68,1.52,1.52,1.52h14.85v-4.73h-10.13c-.84,0-1.52-.68-1.52-1.52v-11.97h-4.73Z"/>
        <path class="st0" d="M116.09,92.46v16.7c0,.84-.68,1.52-1.52,1.52h-14.85v-4.73h10.13c.84,0,1.52-.68,1.52-1.52v-11.97h4.73Z"/>
        <path class="st0" d="M27.91,51.54v-16.7c0-.84.68-1.52,1.52-1.52h14.85v4.73h-10.13c-.84,0-1.52.68-1.52,1.52v11.97h-4.73Z"/>
        <path class="st0" d="M116.09,51.54v-16.7c0-.84-.68-1.52-1.52-1.52h-14.85v4.73h10.13c.84,0,1.52.68,1.52,1.52v11.97h4.73Z"/>
      </g>
    </g>
  </g>
</svg>